<?xml version="1.0" encoding="UTF-8"?>
<svg xmlns="http://www.w3.org/2000/svg" xmlns:xlink="http://www.w3.org/1999/xlink" width="375pt" height="374.999991pt" viewBox="0 0 375 374.999991" version="1.2">
<defs>
<clipPath id="clip1">
  <path d="M 101 90.5 L 274 90.5 L 274 284.984375 L 101 284.984375 Z M 101 90.5 "/>
</clipPath>
<clipPath id="clip2">
  <path d="M 96 90.5 L 279.1875 90.5 L 279.1875 284.984375 L 96 284.984375 Z M 96 90.5 "/>
</clipPath>
<clipPath id="clip3">
  <path d="M 90.078125 90 L 285 90 L 285 285 L 90.078125 285 Z M 90.078125 90 "/>
</clipPath>
</defs>
<g id="surface1">
<path style=" stroke:none;fill-rule:nonzero;fill:rgb(36.859131%,9.01947%,92.158508%);fill-opacity:1;" d="M 146.199219 138.238281 C 144.488281 138.238281 143.121094 138.65625 142.144531 139.511719 C 139.097656 142.167969 140.050781 148.925781 144.828125 158.535156 C 155.867188 180.746094 184.097656 211.847656 207.753906 227.871094 C 220.105469 236.238281 229.304688 239.1875 232.996094 235.96875 C 236.039062 233.3125 235.085938 226.554688 230.308594 216.941406 C 219.265625 194.734375 191.039062 163.628906 167.378906 147.605469 C 158.308594 141.460938 150.933594 138.238281 146.199219 138.238281 Z M 228.980469 237.699219 C 224.097656 237.699219 216.621094 234.460938 207.484375 228.273438 C 183.769531 212.210938 155.464844 181.023438 144.394531 158.75 C 139.511719 148.925781 138.597656 141.960938 141.824219 139.144531 C 145.691406 135.769531 155.105469 138.707031 167.652344 147.207031 C 191.371094 163.269531 219.671875 194.453125 230.742188 216.726562 C 235.628906 226.554688 236.542969 233.515625 233.3125 236.332031 C 232.261719 237.25 230.800781 237.699219 228.980469 237.699219 "/>
<path style=" stroke:none;fill-rule:nonzero;fill:rgb(36.859131%,9.01947%,92.158508%);fill-opacity:1;" d="M 145.835938 136.125 C 144.152344 136.125 142.785156 136.53125 141.785156 137.363281 C 138.628906 139.972656 139.335938 146.710938 143.777344 156.335938 C 154.265625 179.089844 182.523438 211.628906 206.765625 228.867188 C 219.671875 238.046875 229.363281 241.417969 233.355469 238.117188 C 236.507812 235.503906 235.800781 228.769531 231.363281 219.140625 C 220.871094 196.386719 192.613281 163.847656 168.375 146.609375 C 158.714844 139.738281 150.855469 136.125 145.835938 136.125 Z M 229.34375 239.816406 C 224.175781 239.816406 216.210938 236.179688 206.480469 229.265625 C 182.183594 211.980469 153.855469 179.359375 143.332031 156.539062 C 137.515625 143.921875 139.113281 138.941406 141.472656 136.988281 C 145.648438 133.535156 155.554688 136.898438 168.65625 146.214844 C 192.953125 163.496094 221.28125 196.117188 231.800781 218.9375 C 237.621094 231.558594 236.027344 236.535156 233.664062 238.492188 C 232.589844 239.378906 231.136719 239.816406 229.34375 239.816406 "/>
<path style=" stroke:none;fill-rule:nonzero;fill:rgb(36.859131%,9.01947%,92.158508%);fill-opacity:1;" d="M 145.570312 133.992188 C 143.90625 133.992188 142.539062 134.390625 141.511719 135.195312 C 138.242188 137.757812 138.695312 144.464844 142.777344 154.085938 C 152.652344 177.355469 180.863281 211.328125 205.652344 229.808594 C 219.117188 239.847656 229.308594 243.664062 233.628906 240.28125 C 236.894531 237.71875 236.441406 231.011719 232.359375 221.394531 C 222.480469 198.121094 194.277344 164.152344 169.484375 145.667969 C 159.238281 138.03125 150.882812 133.992188 145.570312 133.992188 Z M 229.609375 241.949219 C 224.148438 241.949219 215.679688 237.890625 205.363281 230.199219 C 180.511719 211.671875 152.234375 177.613281 142.332031 154.273438 C 136.976562 141.660156 138.769531 136.730469 141.210938 134.816406 C 145.714844 131.289062 156.121094 135.101562 169.777344 145.28125 C 194.625 163.804688 222.902344 197.867188 232.808594 221.203125 C 238.160156 233.816406 236.371094 238.746094 233.925781 240.664062 C 232.828125 241.523438 231.375 241.949219 229.609375 241.949219 "/>
<path style=" stroke:none;fill-rule:nonzero;fill:rgb(36.859131%,9.01947%,92.158508%);fill-opacity:1;" d="M 145.410156 131.851562 C 143.757812 131.851562 142.386719 132.234375 141.332031 133.023438 C 137.949219 135.527344 138.128906 142.191406 141.84375 151.785156 C 151.039062 175.542969 179.113281 210.941406 204.417969 230.695312 C 218.429688 241.628906 229.144531 245.917969 233.808594 242.457031 C 237.191406 239.953125 237.007812 233.289062 233.292969 223.691406 C 224.097656 199.9375 196.027344 164.539062 170.71875 144.785156 C 159.886719 136.332031 151.027344 131.851562 145.410156 131.851562 Z M 229.777344 244.09375 C 224 244.09375 215.027344 239.585938 204.121094 231.074219 C 178.753906 211.277344 150.613281 175.785156 141.390625 151.960938 C 137.535156 142.003906 137.414062 135.316406 141.039062 132.632812 C 145.894531 129.03125 156.820312 133.324219 171.015625 144.402344 C 196.386719 164.203125 224.523438 199.691406 233.746094 223.519531 C 237.601562 233.476562 237.722656 240.160156 234.097656 242.847656 C 232.96875 243.679688 231.519531 244.09375 229.777344 244.09375 "/>
<path style=" stroke:none;fill-rule:nonzero;fill:rgb(36.859131%,9.01947%,92.158508%);fill-opacity:1;" d="M 145.25 129.742188 C 143.644531 129.742188 142.300781 130.101562 141.25 130.835938 C 137.742188 133.285156 137.648438 139.890625 140.980469 149.4375 C 149.425781 173.644531 177.273438 210.460938 203.0625 231.511719 C 217.390625 243.210938 228.917969 248.117188 233.890625 244.640625 C 237.394531 242.191406 237.488281 235.585938 234.15625 226.039062 C 225.714844 201.835938 197.863281 165.019531 172.074219 143.96875 C 160.777344 134.742188 151.222656 129.742188 145.25 129.742188 Z M 229.839844 246.238281 C 223.730469 246.238281 214.242188 241.261719 202.753906 231.886719 C 176.910156 210.789062 148.992188 173.875 140.523438 149.601562 C 137.0625 139.6875 137.21875 133.0625 140.972656 130.4375 C 146.207031 126.777344 157.660156 131.570312 172.382812 143.589844 C 198.230469 164.691406 226.144531 201.601562 234.617188 225.878906 C 238.074219 235.792969 237.921875 242.417969 234.167969 245.039062 C 233.015625 245.84375 231.558594 246.238281 229.839844 246.238281 "/>
<path style=" stroke:none;fill-rule:nonzero;fill:rgb(36.859131%,9.01947%,92.158508%);fill-opacity:1;" d="M 145.289062 127.589844 C 143.703125 127.589844 142.351562 127.9375 141.273438 128.648438 C 137.585938 131.070312 137.214844 137.433594 140.191406 147.054688 C 147.816406 171.664062 175.347656 209.886719 201.570312 232.253906 C 216.414062 244.917969 228.488281 250.363281 233.863281 246.828125 C 237.550781 244.410156 237.925781 238.042969 234.945312 228.425781 C 227.324219 203.8125 199.789062 165.59375 173.566406 143.222656 C 161.703125 133.101562 151.609375 127.589844 145.289062 127.589844 Z M 229.789062 248.394531 C 223.335938 248.394531 213.316406 242.914062 201.253906 232.625 C 174.976562 210.207031 147.375 171.882812 139.726562 147.195312 C 136.679688 137.351562 137.121094 130.796875 141.003906 128.242188 C 146.660156 124.527344 158.640625 129.851562 173.878906 142.855469 C 200.164062 165.273438 227.761719 203.59375 235.410156 228.28125 C 238.460938 238.128906 238.015625 244.683594 234.132812 247.234375 C 232.953125 248.011719 231.496094 248.394531 229.789062 248.394531 "/>
<path style=" stroke:none;fill-rule:nonzero;fill:rgb(36.859131%,9.01947%,92.158508%);fill-opacity:1;" d="M 145.445312 125.445312 C 143.871094 125.445312 142.515625 125.777344 141.410156 126.460938 C 137.585938 128.816406 136.921875 135.097656 139.492188 144.628906 C 146.214844 169.601562 173.335938 209.210938 199.945312 232.921875 C 215.28125 246.585938 227.910156 252.601562 233.726562 249.015625 C 237.550781 246.664062 238.214844 240.382812 235.648438 230.851562 C 228.921875 205.875 201.800781 166.265625 175.191406 142.558594 C 162.773438 131.496094 152.132812 125.445312 145.445312 125.445312 Z M 229.628906 250.539062 C 222.800781 250.539062 212.242188 244.53125 199.625 233.28125 C 172.953125 209.519531 145.765625 169.808594 139.019531 144.753906 C 136.390625 134.996094 137.128906 128.527344 141.152344 126.050781 C 147.257812 122.289062 159.78125 128.175781 175.511719 142.195312 C 202.183594 165.957031 229.371094 205.671875 236.117188 230.722656 C 238.746094 240.480469 238.007812 246.949219 233.984375 249.429688 C 232.777344 250.171875 231.316406 250.539062 229.628906 250.539062 "/>
<path style=" stroke:none;fill-rule:nonzero;fill:rgb(36.859131%,9.01947%,92.158508%);fill-opacity:1;" d="M 145.714844 123.308594 C 144.15625 123.308594 142.796875 123.628906 141.664062 124.28125 C 137.695312 126.5625 136.734375 132.746094 138.878906 142.171875 C 144.632812 167.464844 171.238281 208.433594 198.1875 233.503906 C 213.988281 248.203125 227.183594 254.816406 233.472656 251.195312 C 237.4375 248.917969 238.402344 242.730469 236.261719 233.308594 C 230.507812 208.015625 203.902344 167.046875 176.953125 141.976562 C 164 129.925781 152.800781 123.308594 145.714844 123.308594 Z M 229.476562 252.636719 C 222.222656 252.636719 210.894531 245.984375 197.851562 233.855469 C 170.84375 208.734375 144.175781 167.652344 138.402344 142.28125 C 136.207031 132.625 137.25 126.257812 141.421875 123.863281 C 147.910156 120.128906 161.320312 126.769531 177.285156 141.621094 C 204.292969 166.746094 230.964844 207.828125 236.734375 233.199219 C 238.929688 242.851562 237.886719 249.21875 233.714844 251.617188 C 232.523438 252.300781 231.105469 252.636719 229.476562 252.636719 "/>
<path style=" stroke:none;fill-rule:nonzero;fill:rgb(36.859131%,9.01947%,92.158508%);fill-opacity:1;" d="M 146.105469 121.1875 C 144.566406 121.1875 143.207031 121.492188 142.046875 122.113281 C 137.929688 124.308594 136.65625 130.386719 138.363281 139.6875 C 143.066406 165.242188 169.046875 207.546875 196.28125 233.988281 C 212.515625 249.757812 226.277344 257.003906 233.089844 253.367188 C 237.210938 251.167969 238.484375 245.089844 236.769531 235.792969 C 232.070312 210.234375 206.089844 167.933594 178.859375 141.488281 C 165.382812 128.402344 153.613281 121.1875 146.105469 121.1875 Z M 229.082031 254.757812 C 221.40625 254.761719 209.503906 247.503906 195.941406 234.335938 C 168.648438 207.835938 142.605469 165.414062 137.886719 139.773438 C 136.132812 130.246094 137.492188 123.992188 141.816406 121.683594 C 148.824219 117.945312 162.800781 125.21875 179.199219 141.140625 C 206.492188 167.644531 232.53125 210.0625 237.25 235.707031 C 239.003906 245.230469 237.644531 251.488281 233.320312 253.792969 C 232.105469 254.441406 230.683594 254.757812 229.082031 254.757812 "/>
<path style=" stroke:none;fill-rule:nonzero;fill:rgb(36.859131%,9.01947%,92.158508%);fill-opacity:1;" d="M 146.621094 119.089844 C 145.101562 119.089844 143.746094 119.378906 142.5625 119.957031 C 138.28125 122.066406 136.691406 128.019531 137.957031 137.175781 C 141.527344 162.941406 166.773438 206.542969 194.226562 234.375 C 210.867188 251.242188 225.207031 259.148438 232.570312 255.519531 C 236.855469 253.414062 238.449219 247.457031 237.179688 238.300781 C 233.605469 212.535156 208.367188 168.933594 180.910156 141.105469 C 166.933594 126.9375 154.585938 119.089844 146.621094 119.089844 Z M 228.566406 256.859375 C 220.433594 256.859375 207.945312 248.972656 193.882812 234.714844 C 166.363281 206.820312 141.058594 163.09375 137.480469 137.242188 C 136.175781 127.859375 137.863281 121.734375 142.351562 119.523438 C 149.914062 115.800781 164.460938 123.742188 181.257812 140.761719 C 208.773438 168.65625 234.078125 212.382812 237.660156 238.234375 C 238.960938 247.617188 237.273438 253.746094 232.789062 255.957031 C 231.558594 256.5625 230.144531 256.859375 228.566406 256.859375 "/>
<path style=" stroke:none;fill-rule:nonzero;fill:rgb(36.859131%,9.01947%,92.158508%);fill-opacity:1;" d="M 147.265625 117.023438 C 145.773438 117.023438 144.425781 117.289062 143.230469 117.828125 C 138.773438 119.832031 136.847656 125.652344 137.664062 134.652344 C 140.023438 160.566406 164.410156 205.425781 192.027344 234.652344 C 209.027344 252.644531 223.9375 261.238281 231.910156 257.652344 C 236.367188 255.644531 238.289062 249.824219 237.472656 240.828125 C 235.113281 214.914062 210.726562 170.050781 183.109375 140.824219 C 168.660156 125.53125 155.71875 117.023438 147.265625 117.023438 Z M 227.917969 258.925781 C 219.296875 258.925781 206.21875 250.375 191.675781 234.988281 C 163.992188 205.691406 139.550781 160.703125 137.183594 134.695312 C 136.34375 125.46875 138.367188 119.484375 143.027344 117.386719 C 151.203125 113.703125 166.3125 122.34375 183.464844 140.492188 C 211.144531 169.785156 235.589844 214.777344 237.953125 240.78125 C 238.792969 250.007812 236.769531 255.992188 232.105469 258.09375 C 230.867188 258.652344 229.464844 258.925781 227.917969 258.925781 "/>
<path style=" stroke:none;fill-rule:nonzero;fill:rgb(36.859131%,9.01947%,92.158508%);fill-opacity:1;" d="M 148.039062 114.992188 C 146.582031 114.992188 145.25 115.234375 144.050781 115.722656 C 139.40625 117.621094 137.140625 123.285156 137.5 132.113281 C 138.558594 158.117188 161.964844 204.1875 189.671875 234.816406 C 206.984375 253.949219 222.464844 263.273438 231.089844 259.753906 C 235.734375 257.859375 238 252.191406 237.640625 243.363281 C 236.578125 217.363281 213.175781 171.292969 185.460938 140.660156 C 170.5625 124.195312 157.019531 114.992188 148.039062 114.992188 Z M 227.140625 260.960938 C 217.992188 260.960938 204.304688 251.710938 189.3125 235.144531 C 161.539062 204.441406 138.074219 158.234375 137.011719 132.136719 C 136.644531 123.085938 139.015625 117.253906 143.863281 115.273438 C 152.6875 111.675781 168.371094 121.046875 185.824219 140.335938 C 213.597656 171.039062 237.058594 217.246094 238.125 243.34375 C 238.492188 252.394531 236.125 258.226562 231.269531 260.203125 C 230.027344 260.710938 228.644531 260.960938 227.140625 260.960938 "/>
<path style=" stroke:none;fill-rule:nonzero;fill:rgb(36.859131%,9.01947%,92.158508%);fill-opacity:1;" d="M 148.941406 113 C 147.535156 113 146.230469 113.21875 145.035156 113.652344 C 140.1875 115.421875 137.566406 120.925781 137.460938 129.574219 C 137.136719 155.589844 159.433594 202.820312 187.164062 234.855469 C 204.726562 255.144531 220.777344 265.230469 230.101562 261.824219 C 234.949219 260.054688 237.570312 254.550781 237.675781 245.902344 C 238 219.886719 215.703125 172.65625 187.972656 140.621094 C 172.664062 122.933594 158.496094 113 148.941406 113 Z M 226.238281 262.953125 C 216.507812 262.953125 202.203125 252.972656 186.796875 235.171875 C 159 203.0625 136.648438 155.6875 136.972656 129.570312 C 137.085938 120.703125 139.8125 115.042969 144.871094 113.199219 C 154.394531 109.722656 170.640625 119.859375 188.339844 140.304688 C 216.136719 172.414062 238.488281 219.789062 238.160156 245.910156 C 238.050781 254.777344 235.320312 260.4375 230.265625 262.28125 C 229.03125 262.730469 227.683594 262.953125 226.238281 262.953125 "/>
<path style=" stroke:none;fill-rule:nonzero;fill:rgb(36.859131%,9.01947%,92.158508%);fill-opacity:1;" d="M 149.832031 111.085938 C 148.539062 111.085938 147.324219 111.261719 146.203125 111.625 C 141.132812 113.25 138.144531 118.582031 137.558594 127.035156 C 135.765625 153 156.820312 201.328125 184.496094 234.765625 C 201.980469 255.894531 219.007812 267.039062 228.929688 263.855469 C 234 262.226562 236.992188 256.898438 237.574219 248.445312 C 239.371094 222.480469 218.316406 174.152344 190.640625 140.710938 C 175.132812 121.972656 159.984375 111.085938 149.832031 111.085938 Z M 225.195312 264.894531 C 214.84375 264.894531 199.898438 254.140625 184.121094 235.074219 C 156.378906 201.554688 135.273438 153.070312 137.078125 127.003906 C 137.675781 118.332031 140.78125 112.855469 146.058594 111.160156 C 156.332031 107.859375 173.132812 118.796875 191.015625 140.402344 C 218.757812 173.925781 239.859375 222.40625 238.058594 248.476562 C 237.460938 257.144531 234.355469 262.621094 229.082031 264.316406 C 227.875 264.703125 226.574219 264.894531 225.195312 264.894531 "/>
<path style=" stroke:none;fill-rule:nonzero;fill:rgb(36.859131%,9.01947%,92.158508%);fill-opacity:1;" d="M 151.003906 109.199219 C 149.792969 109.199219 148.648438 109.34375 147.570312 109.644531 C 142.257812 111.109375 138.882812 116.25 137.8125 124.507812 C 134.457031 150.335938 154.128906 199.695312 181.664062 234.535156 C 199.261719 256.800781 216.847656 268.796875 227.566406 265.835938 C 232.878906 264.367188 236.253906 259.226562 237.328125 250.972656 C 240.679688 225.140625 221.003906 175.785156 193.472656 140.945312 C 177.644531 120.917969 161.820312 109.199219 151.003906 109.199219 Z M 224.167969 266.757812 C 213.179688 266.757812 197.207031 254.980469 181.285156 234.835938 C 153.679688 199.90625 133.960938 150.386719 137.328125 124.445312 C 138.429688 115.980469 141.925781 110.699219 147.441406 109.175781 C 158.351562 106.164062 176.132812 118.21875 193.851562 140.640625 C 221.457031 175.570312 241.175781 225.09375 237.808594 251.035156 C 236.710938 259.5 233.210938 264.78125 227.699219 266.300781 C 226.589844 266.609375 225.410156 266.757812 224.167969 266.757812 "/>
<path style=" stroke:none;fill-rule:nonzero;fill:rgb(36.859131%,9.01947%,92.158508%);fill-opacity:1;" d="M 152.304688 107.375 C 151.207031 107.375 150.15625 107.488281 149.152344 107.71875 C 143.570312 109.003906 139.789062 113.9375 138.214844 121.996094 C 133.214844 147.609375 151.363281 197.925781 178.671875 234.15625 C 196.300781 257.542969 214.433594 270.417969 225.984375 267.757812 C 231.566406 266.476562 235.347656 261.539062 236.921875 253.484375 C 241.921875 227.867188 223.773438 177.554688 196.464844 141.320312 C 180.367188 119.964844 163.851562 107.375 152.304688 107.375 Z M 222.863281 268.585938 C 211.144531 268.585938 194.476562 255.925781 178.285156 234.445312 C 150.90625 198.125 132.714844 147.632812 137.738281 121.898438 C 139.351562 113.644531 143.261719 108.578125 149.042969 107.246094 C 160.785156 104.542969 179.109375 117.488281 196.851562 141.03125 C 224.234375 177.355469 242.421875 227.84375 237.398438 253.578125 C 235.785156 261.835938 231.878906 266.902344 226.09375 268.234375 C 225.066406 268.46875 223.988281 268.585938 222.863281 268.585938 "/>
<path style=" stroke:none;fill-rule:nonzero;fill:rgb(36.859131%,9.01947%,92.158508%);fill-opacity:1;" d="M 153.738281 105.621094 C 152.785156 105.621094 151.859375 105.699219 150.972656 105.863281 C 145.089844 106.9375 140.875 111.65625 138.785156 119.507812 C 132.046875 144.824219 148.523438 196.015625 175.511719 233.621094 C 193.082031 258.097656 211.734375 271.898438 224.167969 269.617188 C 230.046875 268.539062 234.257812 263.820312 236.351562 255.972656 C 243.089844 230.652344 226.617188 179.464844 199.625 141.855469 C 183.316406 119.132812 166.078125 105.621094 153.738281 105.621094 Z M 221.425781 270.339844 C 208.910156 270.339844 191.523438 256.757812 175.117188 233.90625 C 148.054688 196.199219 131.542969 144.820312 138.316406 119.382812 C 140.457031 111.335938 144.804688 106.496094 150.882812 105.386719 C 163.515625 103.074219 182.339844 116.945312 200.019531 141.574219 C 227.085938 179.28125 243.59375 230.65625 236.820312 256.09375 C 234.679688 264.140625 230.332031 268.980469 224.253906 270.09375 C 223.34375 270.261719 222.394531 270.339844 221.425781 270.339844 "/>
<path style=" stroke:none;fill-rule:nonzero;fill:rgb(36.859131%,9.01947%,92.158508%);fill-opacity:1;" d="M 155.296875 103.941406 C 154.53125 103.941406 153.78125 103.988281 153.046875 104.085938 C 146.835938 104.921875 142.160156 109.40625 139.53125 117.054688 C 130.960938 141.980469 145.609375 193.960938 172.1875 232.925781 C 189.597656 258.445312 208.71875 273.195312 222.085938 271.390625 C 228.300781 270.558594 232.976562 266.074219 235.609375 258.421875 C 244.175781 233.496094 229.527344 181.519531 202.949219 142.554688 C 186.492188 118.429688 168.511719 103.941406 155.296875 103.941406 Z M 219.855469 272.023438 C 206.472656 272.023438 188.332031 257.457031 171.789062 233.195312 C 145.132812 194.121094 130.457031 141.953125 139.070312 116.898438 C 141.765625 109.0625 146.578125 104.464844 152.984375 103.605469 C 166.539062 101.789062 185.835938 116.605469 203.351562 142.28125 C 230.003906 181.355469 244.679688 233.527344 236.066406 258.582031 C 233.371094 266.414062 228.5625 271.011719 222.152344 271.875 C 221.402344 271.972656 220.636719 272.023438 219.855469 272.023438 "/>
<path style=" stroke:none;fill-rule:nonzero;fill:rgb(36.859131%,9.01947%,92.158508%);fill-opacity:1;" d="M 156.984375 102.34375 C 156.457031 102.34375 155.933594 102.363281 155.417969 102.40625 C 148.828125 102.960938 143.65625 107.195312 140.457031 114.644531 C 129.964844 139.089844 142.628906 191.753906 168.695312 232.050781 C 185.835938 258.558594 205.367188 274.285156 219.71875 273.070312 C 226.308594 272.515625 231.480469 268.285156 234.679688 260.832031 C 245.171875 236.390625 232.507812 183.722656 206.445312 143.425781 C 189.914062 117.871094 171.148438 102.34375 156.984375 102.34375 Z M 218.164062 273.621094 C 203.828125 273.621094 184.90625 258.011719 168.285156 232.3125 C 142.144531 191.898438 129.460938 139.027344 140.011719 114.453125 C 143.285156 106.828125 148.601562 102.496094 155.378906 101.925781 C 169.890625 100.699219 189.609375 116.503906 206.851562 143.164062 C 232.992188 183.578125 245.675781 236.453125 235.125 261.023438 C 231.851562 268.648438 226.539062 272.984375 219.761719 273.550781 C 219.234375 273.597656 218.703125 273.621094 218.164062 273.621094 "/>
<path style=" stroke:none;fill-rule:nonzero;fill:rgb(36.859131%,9.01947%,92.158508%);fill-opacity:1;" d="M 158.785156 100.835938 C 158.558594 100.835938 158.335938 100.839844 158.109375 100.84375 C 151.097656 101.078125 145.378906 105.035156 141.578125 112.289062 C 129.066406 136.144531 139.589844 189.398438 165.027344 231 C 181.546875 258.011719 201.136719 274.640625 216.351562 274.644531 C 216.578125 274.644531 216.804688 274.640625 217.027344 274.632812 C 224.039062 274.402344 229.753906 270.445312 233.5625 263.191406 C 246.066406 239.332031 235.546875 186.078125 210.109375 144.480469 C 193.589844 117.464844 174 100.835938 158.785156 100.835938 Z M 216.355469 275.128906 C 200.96875 275.128906 181.226562 258.414062 164.613281 231.25 C 139.097656 189.519531 128.566406 136.054688 141.148438 112.0625 C 145.035156 104.644531 150.894531 100.597656 158.09375 100.359375 C 158.320312 100.351562 158.554688 100.351562 158.78125 100.351562 C 174.167969 100.351562 193.914062 117.066406 210.523438 144.226562 C 236.042969 185.957031 246.570312 239.421875 233.992188 263.414062 C 230.097656 270.835938 224.242188 274.878906 217.046875 275.117188 C 216.816406 275.125 216.585938 275.128906 216.355469 275.128906 "/>
<path style=" stroke:none;fill-rule:nonzero;fill:rgb(36.859131%,9.01947%,92.158508%);fill-opacity:1;" d="M 160.714844 99.421875 C 153.417969 99.421875 147.265625 103.070312 142.898438 109.996094 C 128.28125 133.160156 136.488281 186.882812 161.195312 229.753906 C 177.464844 257.988281 197.691406 275.726562 213.984375 276.054688 C 214.128906 276.054688 214.277344 276.058594 214.421875 276.058594 C 221.71875 276.058594 227.871094 272.40625 232.242188 265.484375 C 246.855469 242.316406 238.648438 188.59375 213.941406 145.722656 C 197.675781 117.492188 177.445312 99.75 161.15625 99.425781 C 161.007812 99.421875 160.859375 99.421875 160.714844 99.421875 Z M 214.425781 276.542969 C 214.273438 276.542969 214.125 276.542969 213.972656 276.539062 C 197.511719 276.210938 177.125 258.375 160.773438 229.996094 C 135.988281 186.988281 127.785156 133.039062 142.488281 109.734375 C 147.039062 102.519531 153.472656 98.796875 161.167969 98.941406 C 177.625 99.269531 198.011719 117.105469 214.363281 145.480469 C 239.148438 188.492188 247.351562 242.441406 232.652344 265.742188 C 228.1875 272.816406 221.894531 276.542969 214.425781 276.542969 "/>
<path style=" stroke:none;fill-rule:nonzero;fill:rgb(36.859131%,9.01947%,92.158508%);fill-opacity:1;" d="M 162.769531 98.109375 C 155.511719 98.109375 149.199219 101.425781 144.425781 107.773438 C 127.609375 130.140625 133.335938 184.214844 157.191406 228.3125 C 172.839844 257.246094 193.285156 276.015625 210.539062 277.300781 C 218.566406 277.902344 225.542969 274.582031 230.710938 267.707031 C 247.527344 245.339844 241.800781 191.265625 217.945312 147.164062 C 202.296875 118.234375 181.851562 99.464844 164.59375 98.175781 C 163.984375 98.132812 163.371094 98.109375 162.769531 98.109375 Z M 212.375 277.851562 C 211.757812 277.851562 211.132812 277.832031 210.503906 277.785156 C 193.085938 276.488281 172.492188 257.621094 156.765625 228.542969 C 132.828125 184.292969 127.121094 129.984375 144.039062 107.480469 C 149.3125 100.464844 156.4375 97.085938 164.632812 97.695312 C 182.054688 98.988281 202.644531 117.859375 218.375 146.933594 C 242.308594 191.1875 248.019531 245.492188 231.097656 268 C 226.230469 274.472656 219.785156 277.851562 212.375 277.851562 "/>
<path style=" stroke:none;fill-rule:nonzero;fill:rgb(36.859131%,9.01947%,92.158508%);fill-opacity:1;" d="M 164.917969 96.902344 C 157.722656 96.902344 151.300781 99.878906 146.179688 105.628906 C 127.066406 127.085938 130.136719 181.382812 153.019531 226.664062 C 167.925781 256.167969 188.484375 275.96875 206.667969 278.339844 C 215.296875 279.464844 223.007812 276.527344 228.960938 269.847656 C 248.070312 248.394531 245 194.097656 222.117188 148.8125 C 207.210938 119.308594 186.652344 99.507812 168.46875 97.140625 C 167.269531 96.980469 166.082031 96.902344 164.917969 96.902344 Z M 210.226562 279.058594 C 209.039062 279.058594 207.832031 278.980469 206.605469 278.820312 C 188.261719 276.429688 167.566406 256.527344 152.582031 226.882812 C 129.621094 181.4375 126.582031 126.898438 145.816406 105.308594 C 151.875 98.5 159.730469 95.511719 168.53125 96.65625 C 186.871094 99.050781 207.574219 118.949219 222.550781 148.597656 C 245.515625 194.039062 248.554688 248.578125 229.324219 270.167969 C 224.105469 276.027344 217.558594 279.058594 210.226562 279.058594 "/>
<path style=" stroke:none;fill-rule:nonzero;fill:rgb(36.859131%,9.01947%,92.158508%);fill-opacity:1;" d="M 167.136719 95.808594 C 160.042969 95.808594 153.5625 98.445312 148.15625 103.585938 C 126.660156 124.011719 126.894531 178.386719 148.675781 224.800781 C 162.722656 254.730469 183.28125 275.550781 202.324219 279.128906 C 211.632812 280.878906 220.160156 278.375 226.980469 271.894531 C 248.480469 251.46875 248.246094 197.089844 226.460938 150.679688 C 212.410156 120.746094 191.855469 99.929688 172.8125 96.351562 C 170.886719 95.988281 168.992188 95.808594 167.136719 95.808594 Z M 208.007812 280.15625 C 206.121094 280.15625 204.195312 279.972656 202.234375 279.601562 C 183.039062 275.996094 162.351562 255.074219 148.234375 225.003906 C 126.371094 178.417969 126.183594 123.789062 147.820312 103.234375 C 154.761719 96.640625 163.4375 94.09375 172.902344 95.875 C 192.097656 99.484375 212.785156 120.402344 226.898438 150.472656 C 248.765625 197.0625 248.953125 251.6875 227.316406 272.246094 C 221.8125 277.472656 215.222656 280.15625 208.007812 280.15625 "/>
<path style=" stroke:none;fill-rule:nonzero;fill:rgb(36.859131%,9.01947%,92.158508%);fill-opacity:1;" d="M 169.410156 94.828125 C 162.464844 94.828125 155.992188 97.125 150.375 101.644531 C 126.398438 120.917969 123.613281 175.226562 144.167969 222.710938 C 157.242188 252.914062 177.667969 274.71875 197.472656 279.613281 C 207.53125 282.097656 216.96875 280.101562 224.765625 273.835938 C 248.738281 254.5625 251.523438 200.253906 230.96875 152.765625 C 217.894531 122.5625 197.46875 100.757812 177.664062 95.863281 C 174.859375 95.171875 172.097656 94.828125 169.410156 94.828125 Z M 205.734375 281.136719 C 203.003906 281.136719 200.207031 280.789062 197.355469 280.082031 C 177.40625 275.15625 156.855469 253.242188 143.722656 222.902344 C 123.089844 175.234375 125.933594 120.664062 150.066406 101.265625 C 157.988281 94.902344 167.570312 92.871094 177.78125 95.394531 C 197.730469 100.324219 218.28125 122.234375 231.414062 152.574219 C 252.046875 200.246094 249.203125 254.8125 225.070312 274.210938 C 219.363281 278.800781 212.785156 281.136719 205.734375 281.136719 "/>
<path style=" stroke:none;fill-rule:nonzero;fill:rgb(36.859131%,9.01947%,92.158508%);fill-opacity:1;" d="M 171.722656 93.960938 C 164.976562 93.960938 158.582031 95.929688 152.835938 99.820312 C 126.292969 117.816406 120.308594 171.902344 139.496094 220.390625 C 151.671875 251.164062 171.332031 273.351562 192.082031 279.742188 C 202.964844 283.09375 213.414062 281.679688 222.300781 275.65625 C 248.84375 257.664062 254.828125 203.578125 235.640625 155.089844 C 223.464844 124.316406 203.804688 102.125 183.054688 95.734375 C 179.207031 94.550781 175.410156 93.960938 171.722656 93.960938 Z M 203.421875 282.003906 C 199.683594 282.003906 195.835938 281.40625 191.9375 280.207031 C 171.050781 273.773438 151.277344 251.480469 139.046875 220.566406 C 119.777344 171.878906 125.839844 117.535156 152.5625 99.421875 C 161.578125 93.3125 172.171875 91.875 183.195312 95.273438 C 204.085938 101.707031 223.859375 124 236.09375 154.910156 C 255.359375 203.601562 249.292969 257.945312 222.574219 276.058594 C 216.746094 280.007812 210.257812 282.003906 203.421875 282.003906 "/>
<path style=" stroke:none;fill-rule:nonzero;fill:rgb(36.859131%,9.01947%,92.158508%);fill-opacity:1;" d="M 174.046875 93.210938 C 167.566406 93.210938 161.324219 94.855469 155.554688 98.132812 C 126.355469 114.710938 116.980469 168.40625 134.664062 217.828125 C 145.652344 248.546875 164.890625 271.585938 186.128906 279.460938 C 197.898438 283.820312 209.464844 283.089844 219.578125 277.347656 C 248.78125 260.765625 258.15625 207.074219 240.476562 157.652344 C 229.488281 126.933594 210.246094 103.890625 189.007812 96.019531 C 183.953125 94.144531 178.929688 93.210938 174.046875 93.210938 Z M 201.09375 282.753906 C 196.152344 282.753906 191.078125 281.8125 185.960938 279.914062 C 164.589844 271.992188 145.242188 248.84375 134.203125 217.988281 C 116.449219 168.355469 125.921875 114.398438 155.316406 97.707031 C 165.5625 91.890625 177.269531 91.148438 189.175781 95.5625 C 210.546875 103.488281 229.894531 126.636719 240.933594 157.488281 C 258.6875 207.121094 249.21875 261.078125 219.820312 277.769531 C 213.976562 281.085938 207.652344 282.753906 201.09375 282.753906 "/>
<path style=" stroke:none;fill-rule:nonzero;fill:rgb(36.859131%,9.01947%,92.158508%);fill-opacity:1;" d="M 176.363281 92.574219 C 170.214844 92.574219 164.222656 93.910156 158.542969 96.582031 C 126.59375 111.613281 113.644531 164.742188 129.667969 215.015625 C 139.390625 245.511719 158.054688 269.320312 179.597656 278.699219 C 192.304688 284.238281 205.101562 284.304688 216.59375 278.898438 C 248.542969 263.867188 261.496094 210.734375 245.46875 160.460938 C 235.746094 129.96875 217.082031 106.160156 195.542969 96.777344 C 189.109375 93.976562 182.65625 92.574219 176.363281 92.574219 Z M 198.773438 283.390625 C 192.414062 283.390625 185.898438 281.976562 179.402344 279.144531 C 157.734375 269.710938 138.96875 245.792969 129.207031 215.160156 C 113.109375 164.667969 126.175781 111.273438 158.335938 96.144531 C 169.960938 90.675781 182.894531 90.742188 195.734375 96.332031 C 217.402344 105.769531 236.167969 129.6875 245.929688 160.316406 C 262.027344 210.8125 248.960938 264.203125 216.800781 279.335938 C 211.054688 282.039062 204.988281 283.390625 198.773438 283.390625 "/>
<path style=" stroke:none;fill-rule:nonzero;fill:rgb(36.859131%,9.01947%,92.158508%);fill-opacity:1;" d="M 178.640625 92.054688 C 172.910156 92.054688 167.261719 93.097656 161.804688 95.191406 C 127.023438 108.535156 110.296875 160.910156 124.523438 211.949219 C 132.910156 242.058594 150.84375 266.53125 172.484375 277.414062 C 186.171875 284.292969 200.296875 285.285156 213.335938 280.289062 C 248.113281 266.945312 264.839844 214.570312 250.617188 163.53125 C 242.226562 133.421875 224.296875 108.949219 202.652344 98.066406 C 194.699219 94.066406 186.59375 92.054688 178.640625 92.054688 Z M 196.496094 283.910156 C 188.46875 283.910156 180.292969 281.882812 172.269531 277.847656 C 150.503906 266.902344 132.480469 242.316406 124.050781 212.078125 C 109.765625 160.804688 126.621094 108.164062 161.628906 94.738281 C 174.796875 89.6875 189.058594 90.6875 202.871094 97.632812 C 224.632812 108.574219 242.65625 133.160156 251.085938 163.402344 C 265.375 214.671875 248.515625 267.308594 213.507812 280.738281 C 207.992188 282.855469 202.28125 283.910156 196.496094 283.910156 "/>
<path style=" stroke:none;fill-rule:nonzero;fill:rgb(36.859131%,9.01947%,92.158508%);fill-opacity:1;" d="M 180.835938 91.648438 C 175.621094 91.648438 170.4375 92.417969 165.34375 93.972656 C 127.648438 105.476562 106.960938 156.90625 119.222656 208.617188 C 126.234375 238.1875 143.273438 263.203125 164.800781 275.539062 C 179.476562 283.949219 195.03125 286.011719 209.792969 281.503906 C 247.488281 270 268.179688 218.570312 255.914062 166.863281 C 248.898438 137.292969 231.863281 112.273438 210.335938 99.941406 C 200.722656 94.429688 190.730469 91.648438 180.835938 91.648438 Z M 194.300781 284.316406 C 184.320312 284.316406 174.25 281.507812 164.558594 275.957031 C 142.917969 263.558594 125.796875 238.425781 118.75 208.726562 C 106.429688 156.777344 127.265625 105.085938 165.203125 93.507812 C 180.09375 88.960938 195.785156 91.042969 210.578125 99.519531 C 232.21875 111.917969 249.34375 137.050781 256.386719 166.75 C 268.710938 218.703125 247.871094 270.390625 209.933594 281.96875 C 204.796875 283.539062 199.5625 284.316406 194.300781 284.316406 "/>
<path style=" stroke:none;fill-rule:nonzero;fill:rgb(36.859131%,9.01947%,92.158508%);fill-opacity:1;" d="M 182.890625 91.347656 C 178.3125 91.347656 173.730469 91.875 169.179688 92.9375 C 128.484375 102.460938 103.632812 152.734375 113.78125 205.011719 C 119.472656 234.332031 135.066406 259.125 156.566406 273.03125 C 172.210938 283.148438 189.292969 286.4375 205.957031 282.539062 C 246.648438 273.019531 271.5 222.742188 261.355469 170.46875 C 255.667969 141.144531 240.070312 116.355469 218.570312 102.449219 C 207.199219 95.09375 195.066406 91.347656 182.890625 91.347656 Z M 192.246094 284.617188 C 179.972656 284.621094 167.757812 280.84375 156.304688 273.4375 C 134.691406 259.460938 119.019531 234.554688 113.304688 205.101562 C 103.109375 152.574219 128.125 102.046875 169.066406 92.46875 C 185.867188 88.539062 203.074219 91.847656 218.835938 102.039062 C 240.445312 116.015625 256.117188 140.921875 261.832031 170.375 C 272.027344 222.902344 247.011719 273.429688 206.070312 283.011719 C 201.480469 284.085938 196.855469 284.617188 192.246094 284.617188 "/>
<path style=" stroke:none;fill-rule:nonzero;fill:rgb(36.859131%,9.01947%,92.158508%);fill-opacity:1;" d="M 184.421875 91.179688 C 180.710938 91.179688 176.996094 91.488281 173.308594 92.109375 C 129.542969 99.488281 100.335938 148.394531 108.199219 201.128906 C 112.449219 229.632812 126.894531 254.679688 147.824219 269.855469 C 164.148438 281.691406 183.324219 286.492188 201.824219 283.367188 C 245.59375 275.988281 274.800781 227.082031 266.9375 174.351562 C 262.683594 145.847656 248.242188 120.796875 227.3125 105.625 C 214.242188 96.144531 199.339844 91.179688 184.421875 91.179688 Z M 190.714844 284.78125 C 175.695312 284.78125 160.695312 279.785156 147.539062 270.25 C 126.503906 254.996094 111.992188 229.832031 107.71875 201.199219 C 99.816406 148.210938 129.203125 99.054688 173.226562 91.632812 C 191.859375 88.492188 211.171875 93.316406 227.597656 105.230469 C 248.632812 120.480469 263.148438 145.648438 267.417969 174.277344 C 275.320312 227.269531 245.933594 276.421875 201.90625 283.847656 C 198.195312 284.472656 194.453125 284.78125 190.714844 284.78125 "/>
<g clip-path="url(#clip1)" clip-rule="nonzero">
<path style=" stroke:none;fill-rule:nonzero;fill:rgb(36.859131%,9.01947%,92.158508%);fill-opacity:1;" d="M 185.933594 91.054688 C 183.207031 91.054688 180.476562 91.199219 177.746094 91.496094 C 130.835938 96.578125 97.074219 143.890625 102.488281 196.960938 C 105.300781 224.535156 118.472656 249.695312 138.617188 265.988281 C 155.75 279.84375 176.621094 286.234375 197.390625 283.984375 C 244.304688 278.898438 278.066406 231.589844 272.648438 178.519531 C 269.835938 150.941406 256.667969 125.78125 236.519531 109.488281 C 221.636719 97.457031 203.933594 91.054688 185.933594 91.054688 Z M 189.207031 284.910156 C 171.089844 284.910156 153.28125 278.46875 138.3125 266.363281 C 118.066406 249.992188 104.832031 224.710938 102.007812 197.007812 C 96.5625 143.671875 130.519531 96.125 177.695312 91.011719 C 198.589844 88.75 219.589844 95.175781 236.824219 109.113281 C 257.070312 125.484375 270.308594 150.765625 273.132812 178.472656 C 278.574219 231.804688 244.621094 279.355469 197.441406 284.464844 C 194.695312 284.761719 191.949219 284.910156 189.207031 284.910156 "/>
</g>
<g clip-path="url(#clip2)" clip-rule="nonzero">
<path style=" stroke:none;fill-rule:nonzero;fill:rgb(36.859131%,9.01947%,92.158508%);fill-opacity:1;" d="M 187.085938 90.992188 C 185.558594 90.992188 184.03125 91.035156 182.5 91.113281 C 158.21875 92.382812 135.914062 103.628906 119.699219 122.773438 C 103.484375 141.925781 95.296875 166.6875 96.652344 192.496094 C 98.007812 218.3125 108.738281 242.082031 126.871094 259.433594 C 145 276.78125 168.359375 285.632812 192.640625 284.367188 C 242.769531 281.742188 281.28125 236.257812 278.488281 182.980469 C 277.132812 157.167969 266.398438 133.394531 248.265625 116.042969 C 231.28125 99.792969 209.707031 90.992188 187.085938 90.992188 Z M 188.054688 284.96875 C 165.300781 284.972656 143.613281 276.125 126.535156 259.78125 C 108.3125 242.347656 97.527344 218.457031 96.167969 192.523438 C 94.808594 166.585938 103.03125 141.703125 119.332031 122.460938 C 135.632812 103.210938 158.058594 91.90625 182.472656 90.628906 C 206.890625 89.347656 230.375 98.253906 248.601562 115.695312 C 266.824219 133.132812 277.609375 157.015625 278.96875 182.953125 C 281.78125 236.5 243.0625 282.210938 192.664062 284.851562 C 191.125 284.929688 189.585938 284.96875 188.054688 284.96875 "/>
</g>
<g clip-path="url(#clip3)" clip-rule="nonzero">
<path style=" stroke:none;fill-rule:nonzero;fill:rgb(36.859131%,9.01947%,92.158508%);fill-opacity:1;" d="M 187.570312 90.980469 C 134.15625 90.980469 90.699219 134.386719 90.699219 187.738281 C 90.699219 241.09375 134.15625 284.5 187.570312 284.5 C 240.980469 284.5 284.4375 241.09375 284.4375 187.738281 C 284.4375 134.386719 240.980469 90.980469 187.570312 90.980469 Z M 187.570312 284.984375 C 133.886719 284.984375 90.214844 241.359375 90.214844 187.738281 C 90.214844 134.117188 133.886719 90.496094 187.570312 90.496094 C 241.25 90.496094 284.921875 134.117188 284.921875 187.738281 C 284.921875 241.359375 241.25 284.984375 187.570312 284.984375 "/>
</g>
</g>
</svg>
