<?xml version="1.0" encoding="UTF-8" standalone="no"?>
<svg
   xmlns:dc="http://purl.org/dc/elements/1.1/"
   xmlns:cc="http://creativecommons.org/ns#"
   xmlns:rdf="http://www.w3.org/1999/02/22-rdf-syntax-ns#"
   xmlns:svg="http://www.w3.org/2000/svg"
   xmlns="http://www.w3.org/2000/svg"
   id="svg16"
   xml:space="preserve"
   viewBox="0 0 505 139"
   height="139"
   width="505"
   version="1.1"><metadata
     id="metadata20"><rdf:RDF><cc:Work
         rdf:about=""><dc:format>image/svg+xml</dc:format><dc:type
           rdf:resource="http://purl.org/dc/dcmitype/StillImage" /></cc:Work></rdf:RDF></metadata><desc
     id="desc2">Created with Fabric.js 2.4.6</desc><defs
     id="defs4" /><g
     id="g8"
     transform="matrix(1.36,0,0,1.36,69.6,70)"><path
       id="path6"
       d="M 89,23 C 88.1,21.9 87.1,20.9 86.1,19.8 83.5,17 80.6,14.3 77.6,11.9 71.9,7.3 65.3,3.4 58.1,1.6 45.4,-1.6 32.5,2.4 23,11 21.9,11.9 20.9,12.9 19.8,13.9 17,16.5 14.3,19.4 11.9,22.4 7.3,28.1 3.4,34.7 1.6,41.9 -1.6,54.6 2.4,67.5 11,77 c 0.9,1.1 1.9,2.1 2.9,3.2 2.6,2.8 5.5,5.5 8.5,7.9 5.8,4.6 12.4,8.5 19.6,10.3 12.6,3.2 25.5,-0.8 35.1,-9.4 1.1,-0.9 2.1,-1.9 3.2,-2.9 2.8,-2.6 5.5,-5.5 7.9,-8.5 C 92.8,71.8 96.7,65.2 98.5,58 101.6,45.4 97.6,32.5 89,23 Z m 1.2,46.7 c -0.6,1.3 -1.3,2.6 -2.1,3.9 2.6,-6 4,-12.5 3.9,-18.9 -0.2,-11 -5.6,-21.5 -15.1,-27.2 -5.6,-3.4 -12.4,-4.8 -18.8,-3 -6,1.6 -11,5.7 -15,10.4 3.9,3 7.8,6 11.7,9 2.7,-3.8 6.7,-7.5 11.8,-6.8 5.1,0.7 9.7,4.4 12.2,8.8 4.9,8.3 3.3,19.1 -0.4,27.5 C 74.9,81.6 68.2,88.7 60,92.3 50.3,96.5 39.5,94.7 30.3,90.2 29,89.6 27.7,88.9 26.4,88.1 c 6,2.6 12.5,4 18.9,3.9 11,-0.2 21.5,-5.6 27.2,-15.1 3.4,-5.6 4.8,-12.4 3,-18.8 -1.6,-6 -5.7,-11 -10.4,-15 -3,3.9 -6,7.8 -9,11.7 3.8,2.7 7.5,6.7 6.8,11.8 -0.7,5.1 -4.4,9.7 -8.8,12.2 C 45.8,83.7 35,82.1 26.6,78.4 18.4,74.9 11.3,68.2 7.7,60 3.5,50.3 5.3,39.5 9.8,30.3 c 0.6,-1.3 1.3,-2.6 2.1,-3.9 -2.6,6 -4,12.5 -3.9,18.9 0.2,11 5.6,21.5 15.1,27.2 5.6,3.4 12.4,4.8 18.8,3 6,-1.6 11,-5.7 15,-10.4 -3.9,-3 -7.8,-6 -11.7,-9 -2.7,3.8 -6.7,7.5 -11.8,6.8 C 28.3,62.2 23.7,58.5 21.2,54.1 16.3,45.8 17.9,35 21.6,26.6 25.1,18.4 31.8,11.3 40,7.7 49.7,3.5 60.5,5.3 69.7,9.8 c 1.3,0.6 2.6,1.3 3.9,2.1 -6,-2.6 -12.5,-4 -18.9,-3.9 -11,0.2 -21.5,5.6 -27.2,15.1 -3.4,5.6 -4.8,12.4 -3,18.8 1.6,6 5.7,11 10.4,15 3,-3.9 6,-7.8 9,-11.7 -3.8,-2.7 -7.5,-6.7 -6.8,-11.8 0.7,-5.1 4.4,-9.7 8.8,-12.2 8.3,-4.9 19.1,-3.3 27.5,0.4 8.2,3.6 15.2,10.2 18.8,18.5 4.3,9.6 2.5,20.4 -2,29.6 z"
       transform="translate(-50.02,-50)"
       style="opacity:1;fill:#562162;fill-rule:nonzero;stroke:none;stroke-width:1;stroke-linecap:butt;stroke-linejoin:miter;stroke-miterlimit:4;stroke-dasharray:none;stroke-dashoffset:0" /></g><g
     id="g14"
     transform="translate(338.46,74.62)"><g
       id="text12"
       style="font-style:normal;font-weight:normal;font-size:48px;font-family:Ubuntu;white-space:pre;opacity:1;fill:#000000;fill-rule:nonzero;stroke:none;stroke-width:1;stroke-linecap:butt;stroke-linejoin:miter;stroke-miterlimit:4;stroke-dasharray:none;stroke-dashoffset:0"
       aria-label="Mayan Solution"><path
         id="path22"
         style=""
         d="m -148.70399,10.472 q -0.48,-1.1520001 -1.296,-2.9280001 -0.768,-1.776 -1.68,-3.84 -0.912,-2.064 -1.968,-4.22399998 -1.008,-2.20800002 -1.92,-4.12800002 -0.912,-1.968 -1.728,-3.504 -0.768,-1.536 -1.248,-2.3519999 -0.528,5.6639999 -0.864,12.2879999 -0.336,6.576 -0.576,13.2960001 h -4.56 q 0.192,-4.32 0.432,-8.6880001 0.24,-4.416 0.528,-8.64 0.336,-4.272 0.672,-8.3039999 0.384,-4.032 0.816,-7.632 h 4.08 q 1.296,2.112 2.784,4.992 1.488,2.88 2.976,6.0479999 1.488,3.12 2.88,6.28800002 1.392,3.11999998 2.544,5.71199998 1.152,-2.592 2.544,-5.71199998 1.392,-3.16800002 2.88,-6.28800002 1.488,-3.1679999 2.976,-6.0479999 1.488,-2.88 2.784,-4.992 h 4.08 q 1.632,16.0799999 2.448,33.264 h -4.56 q -0.24,-6.7200001 -0.576,-13.2960001 -0.336,-6.624 -0.864,-12.2879999 -0.48,0.8159999 -1.296,2.3519999 -0.768,1.536 -1.68,3.504 -0.912,1.92 -1.968,4.12800002 -1.008,2.15999998 -1.92,4.22399998 -0.912,2.064 -1.728,3.84 -0.768,1.776 -1.248,2.9280001 z" /><path
         id="path24"
         style=""
         d="m -113.65949,11.864 q 1.584,0 2.784,-0.048 1.248,-0.096 2.064,-0.288 V 4.0879999 q -0.48,-0.24 -1.584,-0.384 -1.056,-0.192 -2.592,-0.192 -1.008,0 -2.16,0.144 -1.104,0.144 -2.064,0.624 -0.912,0.432 -1.536,1.248 -0.624,0.768 -0.624,2.064 0,2.4 1.536,3.3600001 1.536,0.912 4.176,0.912 z m -0.384,-22.368 q 2.688,0 4.512,0.7199999 1.872,0.672 2.976,1.968 1.152,1.248 1.632,3.024 0.48,1.728 0.48,3.84000002 V 14.648 q -0.576,0.096 -1.632,0.288 -1.008,0.144 -2.304,0.288 -1.296,0.144 -2.832,0.24 -1.488,0.144 -2.976,0.144 -2.112,0 -3.888,-0.432 -1.776,-0.432 -3.072,-1.344 -1.296,-0.96 -2.016,-2.496 -0.72,-1.5360001 -0.72,-3.6960001 0,-2.064 0.816,-3.552 0.864,-1.488 2.304,-2.4 1.44,-0.91199998 3.36,-1.34399998 1.92,-0.432 4.032,-0.432 0.672,0 1.392,0.096 0.72,0.048 1.344,0.192 0.672,0.096 1.152,0.192 0.48,0.096 0.672,0.144 v -1.248 q 0,-1.10400002 -0.24,-2.16000002 -0.24,-1.104 -0.864,-1.92 -0.624,-0.864 -1.728,-1.344 -1.056,-0.528 -2.784,-0.528 -2.208,0 -3.888,0.336 -1.632,0.288 -2.448,0.624 l -0.528,-3.696 q 0.864,-0.384 2.88,-0.7199999 2.016,-0.384 4.368,-0.384 z" /><path
         id="path26"
         style=""
         d="m -100.75424,19.736 q 0.528,0.24 1.343995,0.432 0.864,0.24 1.68,0.24 2.64,0 4.128,-1.2 1.488,-1.152 2.688,-3.792 -3.024,-5.7600001 -5.664,-12.1920001 -2.592,-6.48 -4.319995,-13.104 h 4.799995 q 0.528,2.16 1.248,4.656 0.768,2.496 1.68,5.13600002 0.912,2.63999998 1.968,5.27999998 1.056,2.64 2.208,5.0880001 1.824,-5.0400001 3.168,-9.98400008 1.344,-4.94400002 2.544,-10.17600002 h 4.608 q -1.728,7.056 -3.84,13.584 -2.112,6.4800001 -4.56,12.1440001 -0.96,2.16 -2.016,3.696 -1.008,1.584 -2.256,2.592 -1.248,1.008 -2.832,1.488 -1.536,0.48 -3.504,0.48 -0.528,0 -1.104,-0.096 -0.576,-0.048 -1.152,-0.192 -0.527995,-0.096 -1.007995,-0.24 -0.432,-0.144 -0.624,-0.24 z" /><path
         id="path28"
         style=""
         d="m -65.565745,11.864 q 1.584,0 2.784,-0.048 1.248,-0.096 2.064,-0.288 V 4.0879999 q -0.48,-0.24 -1.584,-0.384 -1.056,-0.192 -2.592,-0.192 -1.008,0 -2.16,0.144 -1.104,0.144 -2.064,0.624 -0.912,0.432 -1.536,1.248 -0.624,0.768 -0.624,2.064 0,2.4 1.536,3.3600001 1.536,0.912 4.176,0.912 z m -0.384,-22.368 q 2.688,0 4.512,0.7199999 1.872,0.672 2.976,1.968 1.152,1.248 1.632,3.024 0.48,1.728 0.48,3.84000002 V 14.648 q -0.576,0.096 -1.632,0.288 -1.008,0.144 -2.304,0.288 -1.296,0.144 -2.832,0.24 -1.488,0.144 -2.976,0.144 -2.112,0 -3.888,-0.432 -1.776,-0.432 -3.072,-1.344 -1.296,-0.96 -2.016,-2.496 -0.72,-1.5360001 -0.72,-3.6960001 0,-2.064 0.816,-3.552 0.864,-1.488 2.304,-2.4 1.44,-0.91199998 3.36,-1.34399998 1.92,-0.432 4.032,-0.432 0.672,0 1.392,0.096 0.72,0.048 1.344,0.192 0.672,0.096 1.152,0.192 0.48,0.096 0.672,0.144 v -1.248 q 0,-1.10400002 -0.24,-2.16000002 -0.24,-1.104 -0.864,-1.92 -0.624,-0.864 -1.728,-1.344 -1.056,-0.528 -2.784,-0.528 -2.208,0 -3.888,0.336 -1.632,0.288 -2.448,0.624 l -0.528,-3.696 q 0.864,-0.384 2.88,-0.7199999 2.016,-0.384 4.368,-0.384 z" /><path
         id="path30"
         style=""
         d="m -48.982495,-9.1600001 q 1.536,-0.384 4.08,-0.816 2.544,-0.4319999 5.856,-0.4319999 2.976,0 4.944,0.8639999 1.968,0.816 3.12,2.352 1.2,1.488 1.68,3.6 0.48,2.112 0.48,4.656 V 15.08 h -4.464 V 2.0239999 q 0,-2.30399998 -0.336,-3.936 -0.288,-1.632 -1.008,-2.64 -0.72,-1.008 -1.92,-1.44 -1.2,-0.48 -2.976,-0.48 -0.72,0 -1.488,0.048 -0.768,0.048 -1.488,0.144 -0.672,0.048 -1.248,0.144 -0.528,0.096 -0.768,0.144 V 15.08 h -4.464 z" /><path
         id="path32"
         style=""
         d="m -2.3414945,11.768 q 7.296,0 7.296,-4.9920001 0,-1.536 -0.672,-2.592 -0.624,-1.104 -1.728,-1.872 -1.104,-0.816 -2.54400001,-1.39199998 -1.39199999,-0.576 -2.97599999,-1.152 -1.824,-0.624 -3.456,-1.39200002 -1.632,-0.816 -2.832,-1.872 -1.2000005,-1.104 -1.9200005,-2.592 -0.672,-1.488 -0.672,-3.6 0,-4.3679999 2.9760005,-6.8159999 2.976,-2.448 8.20799999,-2.448 3.02400001,0 5.47200001,0.672 2.496,0.624 3.648,1.392 l -1.488,3.792 q -1.008,-0.624 -3.024,-1.2 -1.968,-0.624 -4.60800001,-0.624 -1.34399999,0 -2.49599999,0.288 -1.152,0.288 -2.016,0.864 -0.864,0.576 -1.392,1.488 -0.48,0.864 -0.48,2.064 0,1.3439999 0.528,2.2559999 0.528,0.912 1.488,1.632 0.96,0.672 2.208,1.248 1.296,0.576 2.83199999,1.152 2.16000001,0.864 3.93600001,1.728 1.824,0.864 3.12,2.06400002 1.344,1.19999998 2.064,2.87999998 0.72,1.632 0.72,3.984 0,4.3680001 -3.216,6.7200001 -3.168,2.352 -8.976,2.352 -1.968,0 -3.648,-0.288 -1.632,-0.24 -2.928,-0.576 -1.2960005,-0.384 -2.2560005,-0.768 -0.912,-0.432 -1.44,-0.72 l 1.392,-3.8400001 Q -10.117495,10.232 -7.8614945,11 q 2.256,0.768 5.52,0.768 z" /><path
         id="path34"
         style=""
         d="m 37.174505,2.5999999 q 0,2.976 -0.864,5.376 -0.864,2.4000001 -2.448,4.1280001 -1.536,1.728 -3.696,2.688 -2.16,0.912 -4.704,0.912 -2.544,0 -4.704,-0.912 -2.16,-0.96 -3.744,-2.688 -1.536,-1.728 -2.4,-4.1280001 -0.864,-2.4 -0.864,-5.376 0,-2.92799998 0.864,-5.328 0.864,-2.448 2.4,-4.176 1.584,-1.728 3.744,-2.64 2.16,-0.9599999 4.704,-0.9599999 2.544,0 4.704,0.9599999 2.16,0.912 3.696,2.64 1.584,1.728 2.448,4.176 0.864,2.40000002 0.864,5.328 z m -4.656,0 q 0,-4.224 -1.92,-6.672 -1.872,-2.496 -5.136,-2.496 -3.264,0 -5.184,2.496 -1.872,2.448 -1.872,6.672 0,4.224 1.872,6.72 1.92,2.4480001 5.184,2.4480001 3.264,0 5.136,-2.4480001 1.92,-2.496 1.92,-6.72 z" /><path
         id="path36"
         style=""
         d="m 50.943005,15.56 q -4.128,-0.096 -5.856,-1.776 -1.728,-1.68 -1.728,-5.2320001 V -21.4 l 4.464,-0.768 V 7.8319999 q 0,1.104 0.192,1.824 0.192,0.7200001 0.624,1.1520001 0.432,0.432 1.152,0.672 0.72,0.192 1.776,0.336 z" /><path
         id="path38"
         style=""
         d="m 76.452005,14.36 q -1.536,0.384 -4.08,0.816 -2.496,0.432 -5.808,0.432 -2.88,0 -4.848,-0.816 -1.968,-0.864 -3.168,-2.4 -1.2,-1.536 -1.728,-3.6000001 -0.528,-2.112 -0.528,-4.656 v -14.016 h 4.464 v 13.056 q 0,4.56 1.44,6.528 1.44,1.9680001 4.848,1.9680001 0.72,0 1.488,-0.048 0.768,-0.048 1.44,-0.096 0.672,-0.096 1.2,-0.144 0.576,-0.096 0.816,-0.192 V -9.8800001 h 4.464 z" /><path
         id="path40"
         style=""
         d="m 88.318505,-9.8800001 h 9.456 v 3.744 h -9.456 v 11.52 q 0,1.872 0.288,3.12 0.288,1.2 0.864,1.9200001 0.576,0.672 1.44,0.96 0.864,0.288 2.016,0.288 2.016,0 3.216,-0.432 1.248,-0.48 1.728,-0.672 l 0.864,3.696 q -0.672,0.336 -2.352,0.816 -1.68,0.528 -3.84,0.528 -2.544,0 -4.224,-0.624 -1.632,-0.672 -2.64,-1.968 -1.008,-1.296 -1.44,-3.1680001 -0.384,-1.92 -0.384,-4.416 V -16.84 l 4.464,-0.768 z" /><path
         id="path42"
         style=""
         d="m 107.91901,15.08 h -4.464 V -9.8800001 h 4.464 z m -2.256,-29.472 q -1.2,0 -2.064,-0.768 -0.816,-0.816 -0.816,-2.16 0,-1.344 0.816,-2.112 0.864,-0.816 2.064,-0.816 1.2,0 2.016,0.816 0.864,0.768 0.864,2.112 0,1.344 -0.864,2.16 -0.816,0.768 -2.016,0.768 z" /><path
         id="path44"
         style=""
         d="m 137.67451,2.5999999 q 0,2.976 -0.864,5.376 -0.864,2.4000001 -2.448,4.1280001 -1.536,1.728 -3.696,2.688 -2.16,0.912 -4.704,0.912 -2.544,0 -4.704,-0.912 -2.16,-0.96 -3.744,-2.688 -1.536,-1.728 -2.4,-4.1280001 -0.864,-2.4 -0.864,-5.376 0,-2.92799998 0.864,-5.328 0.864,-2.448 2.4,-4.176 1.584,-1.728 3.744,-2.64 2.16,-0.9599999 4.704,-0.9599999 2.544,0 4.704,0.9599999 2.16,0.912 3.696,2.64 1.584,1.728 2.448,4.176 0.864,2.40000002 0.864,5.328 z m -4.656,0 q 0,-4.224 -1.92,-6.672 -1.872,-2.496 -5.136,-2.496 -3.264,0 -5.184,2.496 -1.872,2.448 -1.872,6.672 0,4.224 1.872,6.72 1.92,2.4480001 5.184,2.4480001 3.264,0 5.136,-2.4480001 1.92,-2.496 1.92,-6.72 z" /><path
         id="path46"
         style=""
         d="m 143.95501,-9.1600001 q 1.536,-0.384 4.08,-0.816 2.544,-0.4319999 5.856,-0.4319999 2.976,0 4.944,0.8639999 1.968,0.816 3.12,2.352 1.2,1.488 1.68,3.6 0.48,2.112 0.48,4.656 V 15.08 h -4.464 V 2.0239999 q 0,-2.30399998 -0.336,-3.936 -0.288,-1.632 -1.008,-2.64 -0.72,-1.008 -1.92,-1.44 -1.2,-0.48 -2.976,-0.48 -0.72,0 -1.488,0.048 -0.768,0.048 -1.488,0.144 -0.672,0.048 -1.248,0.144 -0.528,0.096 -0.768,0.144 V 15.08 h -4.464 z" /></g></g></svg>